<svg width="169" height="30" viewBox="0 0 169 30" fill="none" xmlns="http://www.w3.org/2000/svg">
<path d="M15.04 0.999998C18.6133 0.999998 21.4133 1.85333 23.44 3.56C25.4667 5.26667 26.48 7.61333 26.48 10.6C26.48 13.5867 25.4667 15.9333 23.44 17.64C21.4133 19.32 18.6133 20.16 15.04 20.16H7.52V29H4.56V0.999998H15.04ZM14.96 17.56C17.7333 17.56 19.8533 16.96 21.32 15.76C22.7867 14.5333 23.52 12.8133 23.52 10.6C23.52 8.33333 22.7867 6.6 21.32 5.4C19.8533 4.17333 17.7333 3.56 14.96 3.56H7.52V17.56H14.96ZM47.5109 29.24C44.7376 29.24 42.2176 28.6267 39.9509 27.4C37.7109 26.1467 35.9509 24.44 34.6709 22.28C33.4176 20.12 32.7909 17.6933 32.7909 15C32.7909 12.3067 33.4176 9.88 34.6709 7.72C35.9509 5.56 37.7109 3.86667 39.9509 2.64C42.2176 1.38667 44.7376 0.759999 47.5109 0.759999C50.2843 0.759999 52.7776 1.37333 54.9909 2.6C57.2309 3.82667 58.9909 5.53333 60.2709 7.72C61.5509 9.88 62.1909 12.3067 62.1909 15C62.1909 17.6933 61.5509 20.1333 60.2709 22.32C58.9909 24.48 57.2309 26.1733 54.9909 27.4C52.7776 28.6267 50.2843 29.24 47.5109 29.24ZM47.5109 26.6C49.7243 26.6 51.7243 26.1067 53.5109 25.12C55.2976 24.1067 56.6976 22.72 57.7109 20.96C58.7243 19.1733 59.2309 17.1867 59.2309 15C59.2309 12.8133 58.7243 10.84 57.7109 9.08C56.6976 7.29333 55.2976 5.90667 53.5109 4.92C51.7243 3.90666 49.7243 3.4 47.5109 3.4C45.2976 3.4 43.2843 3.90666 41.4709 4.92C39.6843 5.90667 38.2709 7.29333 37.2309 9.08C36.2176 10.84 35.7109 12.8133 35.7109 15C35.7109 17.1867 36.2176 19.1733 37.2309 20.96C38.2709 22.72 39.6843 24.1067 41.4709 25.12C43.2843 26.1067 45.2976 26.6 47.5109 26.6ZM89.9456 29L83.5456 20C82.8256 20.08 82.079 20.12 81.3056 20.12H73.7856V29H70.8256V0.999998H81.3056C84.879 0.999998 87.679 1.85333 89.7056 3.56C91.7323 5.26667 92.7456 7.61333 92.7456 10.6C92.7456 12.7867 92.1856 14.64 91.0656 16.16C89.9723 17.6533 88.399 18.7333 86.3456 19.4L93.1856 29H89.9456ZM81.2256 17.6C83.999 17.6 86.119 16.9867 87.5856 15.76C89.0523 14.5333 89.7856 12.8133 89.7856 10.6C89.7856 8.33333 89.0523 6.6 87.5856 5.4C86.119 4.17333 83.999 3.56 81.2256 3.56H73.7856V17.6H81.2256ZM106.781 3.56H96.9413V0.999998H119.581V3.56H109.741V29H106.781V3.56ZM149.71 0.999998V29H147.27L129.27 6.28V29H126.31V0.999998H128.75L146.79 23.72V0.999998H149.71ZM160.849 0.999998H163.809V29H160.849V0.999998Z" fill="#F98726"/>
<path d="M0 16.4H168.369V18.4H0V16.4Z" fill="#F98726"/>
</svg>
